<svg width="100" height="100" viewBox="0 0 100 100" fill="none" xmlns="http://www.w3.org/2000/svg">
    <defs>
        <linearGradient id="main-gradient" x1="0%" y1="0%" x2="100%" y2="100%">
            <stop offset="0%" style="stop-color:#4facfe" />
            <stop offset="100%" style="stop-color:#9733ee" />
        </linearGradient>
        <linearGradient id="stroke-gradient" x1="0%" y1="0%" x2="100%" y2="100%">
            <stop offset="0%" style="stop-color:#4facfe; stop-opacity:0.6" />
            <stop offset="100%" style="stop-color:#9733ee; stop-opacity:0.6" />
        </linearGradient>
    </defs>

    <g stroke="url(#stroke-gradient)" stroke-width="1.5" stroke-linecap="round">
        <path d="M20 40 H30 V30 M70 60 H80 V70 M30 70 H20 V80 M80 30 V20 H70" />
        <path d="M50 10 V20 M50 80 V90 M10 50 H20 M80 50 H90" />
        <circle cx="20" cy="40" r="1.5" fill="url(#main-gradient)" />
        <circle cx="80" cy="70" r="1.5" fill="url(#main-gradient)" />
        <circle cx="50" cy="10" r="1.5" fill="url(#main-gradient)" />
    </g>

    <g filter="drop-shadow(0 0 5px rgba(79, 172, 254, 0.4))">
        <path d="M55 5 L25 55 H45 L35 95 L75 45 H55 L65 5Z" fill="url(#main-gradient)" />
        <path d="M55 5 L55 45 L75 45 M35 95 L45 55" stroke="white" stroke-width="0.5" stroke-opacity="0.3" />
    </g>
</svg>